<svg width="52" height="52" viewBox="0 0 52 52" fill="none" xmlns="http://www.w3.org/2000/svg">
<g clip-path="url(#clip0_8286:2)">
<rect width="52" height="52" fill="white"/>
<path fill-rule="evenodd" clip-rule="evenodd" d="M-10.8902 -10.5948L25.5 -25.9552L61.8902 -10.5948L76.9682 26.5L61.8902 63.5948L25.5 78.9552L-10.8902 63.5948L-25.9682 26.5L-10.8902 -10.5948ZM25.5 -27L62.6231 -11.3302L78 26.5L62.6231 64.3302L25.5 80L-11.6231 64.3302L-27 26.5L-11.6231 -11.3302L25.5 -27ZM18.4478 15.827C17.4627 15.6188 16.2485 15.5147 14.8053 15.5147C12.4456 15.5147 10.3151 15.9774 8.41363 16.9028C6.53509 17.8282 5.05745 19.1353 3.98073 20.8242C2.904 22.4899 2.36564 24.4101 2.36564 26.5848C2.36564 28.8289 2.89254 30.8186 3.94636 32.5537C5.00018 34.2888 6.46636 35.6422 8.34491 36.6139C10.2464 37.5624 12.3998 38.0367 14.8053 38.0367C16.1569 38.0367 17.3482 37.921 18.3791 37.6897C19.4329 37.4583 20.5555 37.0535 21.7467 36.4751C21.8842 36.3826 21.9758 36.3016 22.0216 36.2322C22.0675 36.1628 22.1018 35.9893 22.1247 35.7116L22.4684 31.8943C22.4684 31.8249 22.3882 31.7902 22.2278 31.7902C22.1133 31.7902 22.056 31.8134 22.056 31.8596C21.4375 33.7567 20.544 35.168 19.3756 36.0934C18.2073 37.0188 16.6838 37.4815 14.8053 37.4815C13.0413 37.4815 11.4033 36.9956 9.89127 36.024C8.40218 35.0523 7.21091 33.7336 6.31746 32.0679C5.44691 30.379 5.01164 28.5282 5.01164 26.5154C5.01164 24.4101 5.41255 22.5709 6.21436 20.9977C7.01618 19.4014 8.15018 18.1752 9.61636 17.3192C11.0825 16.4632 12.7778 16.0352 14.7022 16.0352C18.3676 16.0352 20.7273 17.967 21.7811 21.8306C21.804 21.9 21.8727 21.9347 21.9873 21.9347C22.1247 21.9115 22.1935 21.8653 22.1935 21.7959L21.7811 17.6662C21.7353 17.3886 21.7009 17.2151 21.678 17.1457C21.6551 17.0763 21.5635 16.9953 21.4031 16.9028C20.418 16.3938 19.4329 16.0352 18.4478 15.827ZM49.1533 37.3774C49.1533 37.2386 49.119 37.1692 49.0502 37.1692C48.1797 37.1692 47.5382 37.1113 47.1259 36.9956C46.7135 36.88 46.4272 36.6602 46.2668 36.3363C46.1293 35.9893 46.0606 35.4687 46.0606 34.7747V18.7073C46.0606 18.0133 46.1293 17.5043 46.2668 17.1804C46.4272 16.8565 46.7135 16.6367 47.1259 16.521C47.5382 16.3822 48.1797 16.3128 49.0502 16.3128C49.119 16.3128 49.1533 16.2434 49.1533 16.1046C49.1533 15.9658 49.119 15.8964 49.0502 15.8964L47.3664 15.9311C46.4042 15.9774 45.6139 16.0005 44.9953 16.0005C44.3081 16.0005 43.4604 15.9774 42.4524 15.9311L40.8373 15.8964C40.7686 15.8964 40.7342 15.9658 40.7342 16.1046C40.7342 16.2434 40.7686 16.3128 40.8373 16.3128C41.7308 16.3128 42.3837 16.3822 42.7961 16.521C43.2084 16.6599 43.4833 16.9028 43.6208 17.2498C43.7812 17.5737 43.8613 18.0827 43.8613 18.7767V25.9255H30.6657V18.7767C30.6657 18.0827 30.7344 17.5737 30.8719 17.2498C31.0322 16.9028 31.3186 16.6599 31.731 16.521C32.1662 16.3822 32.8192 16.3128 33.6897 16.3128C33.7355 16.3128 33.7584 16.2434 33.7584 16.1046C33.7584 15.9658 33.7355 15.8964 33.6897 15.8964L32.0402 15.9311C31.0322 15.9774 30.1961 16.0005 29.5317 16.0005C28.959 16.0005 28.1915 15.9774 27.2293 15.9311L25.4768 15.8964C25.431 15.8964 25.4081 15.9658 25.4081 16.1046C25.4081 16.2434 25.431 16.3128 25.4768 16.3128C26.3473 16.3128 26.9888 16.3822 27.4012 16.521C27.8135 16.6367 28.0884 16.8565 28.2259 17.1804C28.3862 17.5043 28.4664 18.0133 28.4664 18.7073V34.7747C28.4664 35.4687 28.3862 35.9893 28.2259 36.3363C28.0884 36.6602 27.8021 36.88 27.3668 36.9956C26.9544 37.1113 26.313 37.1692 25.4424 37.1692C25.3966 37.1692 25.3737 37.2386 25.3737 37.3774C25.3737 37.5162 25.3966 37.5856 25.4424 37.5856C26.1755 37.5856 26.7482 37.574 27.1606 37.5509L29.5317 37.5162L32.0059 37.5509C32.4183 37.574 32.9795 37.5856 33.6897 37.5856C33.7355 37.5856 33.7584 37.5162 33.7584 37.3774C33.7584 37.2386 33.7355 37.1692 33.6897 37.1692C32.7962 37.1692 32.1433 37.1113 31.731 36.9956C31.3186 36.88 31.0322 36.6602 30.8719 36.3363C30.7344 35.9893 30.6657 35.4687 30.6657 34.7747V26.6542H43.8613V34.7747C43.8613 35.4687 43.7812 35.9893 43.6208 36.3363C43.4833 36.6602 43.2084 36.88 42.7961 36.9956C42.3837 37.1113 41.7308 37.1692 40.8373 37.1692C40.7686 37.1692 40.7342 37.2386 40.7342 37.3774C40.7342 37.5162 40.7686 37.5856 40.8373 37.5856C41.5246 37.5856 42.063 37.574 42.4524 37.5509L44.9953 37.5162L47.3664 37.5509C47.7788 37.574 48.3401 37.5856 49.0502 37.5856C49.119 37.5856 49.1533 37.5162 49.1533 37.3774Z" fill="#A87B62"/>
</g>
<defs>
<clipPath id="clip0_8286:2">
<rect width="52" height="52" fill="white"/>
</clipPath>
</defs>
</svg>
